<svg width="140" height="32" viewBox="0 0 140 32" fill="none" xmlns="http://www.w3.org/2000/svg">
<g clip-path="url(#clip0_1_4)">
<path d="M21 15C22.1046 15 23 14.1046 23 13C23 11.8954 22.1046 11 21 11C19.8954 11 19 11.8954 19 13C19 14.1046 19.8954 15 21 15Z" stroke="black" stroke-width="2" stroke-linecap="round" stroke-linejoin="round"/>
<path d="M11 23C12.1046 23 13 22.1046 13 21C13 19.8954 12.1046 19 11 19C9.89543 19 9 19.8954 9 21C9 22.1046 9.89543 23 11 23Z" stroke="black" stroke-width="2" stroke-linecap="round" stroke-linejoin="round"/>
<path d="M19 27V20L11 12V5" stroke="black" stroke-width="2" stroke-linecap="round" stroke-linejoin="round"/>
<path d="M11 19V12" stroke="black" stroke-width="2" stroke-linecap="round" stroke-linejoin="round"/>
<path d="M26 5H6C5.44772 5 5 5.44772 5 6V26C5 26.5523 5.44772 27 6 27H26C26.5523 27 27 26.5523 27 26V6C27 5.44772 26.5523 5 26 5Z" stroke="black" stroke-width="2" stroke-linecap="round" stroke-linejoin="round"/>
<path d="M17 5V9L19.5863 11.5863" stroke="black" stroke-width="2" stroke-linecap="round" stroke-linejoin="round"/>
</g>
<path d="M43.0099 12.0909V14.3636H36.4403V12.0909H43.0099ZM37.9318 9.47727H40.9574V19.6477C40.9574 19.9271 41 20.1449 41.0852 20.3011C41.1705 20.4527 41.2888 20.5592 41.4403 20.6207C41.5966 20.6823 41.7765 20.7131 41.9801 20.7131C42.1222 20.7131 42.2642 20.7012 42.4062 20.6776C42.5483 20.6491 42.6572 20.6278 42.733 20.6136L43.2088 22.8651C43.0573 22.9124 42.8442 22.9669 42.5696 23.0284C42.295 23.0947 41.9612 23.1349 41.5682 23.1491C40.839 23.1776 40.1998 23.0805 39.6506 22.858C39.1061 22.6354 38.6823 22.2898 38.3793 21.821C38.0762 21.3523 37.9271 20.7604 37.9318 20.0455V9.47727ZM49.8352 23.2131C48.7131 23.2131 47.7472 22.9858 46.9375 22.5312C46.1326 22.072 45.5123 21.4233 45.0767 20.5852C44.6411 19.7424 44.4233 18.7457 44.4233 17.5952C44.4233 16.473 44.6411 15.4882 45.0767 14.6406C45.5123 13.7931 46.1255 13.1326 46.9162 12.6591C47.7116 12.1856 48.6444 11.9489 49.7145 11.9489C50.4342 11.9489 51.1042 12.0649 51.7244 12.2969C52.3494 12.5241 52.8939 12.8674 53.358 13.3267C53.8267 13.786 54.1913 14.3636 54.4517 15.0597C54.7121 15.7509 54.8423 16.5606 54.8423 17.4886V18.3196H45.6307V16.4446H51.9943C51.9943 16.009 51.8996 15.6231 51.7102 15.2869C51.5208 14.9508 51.258 14.688 50.9219 14.4986C50.5904 14.3045 50.2045 14.2074 49.7642 14.2074C49.3049 14.2074 48.8977 14.3139 48.5426 14.527C48.1922 14.7353 47.9176 15.017 47.7188 15.3722C47.5199 15.7225 47.4181 16.1132 47.4134 16.544V18.3267C47.4134 18.8665 47.5128 19.3329 47.7116 19.7259C47.9152 20.1188 48.2017 20.4219 48.571 20.6349C48.9403 20.848 49.3783 20.9545 49.8849 20.9545C50.2211 20.9545 50.5289 20.9072 50.8082 20.8125C51.0876 20.7178 51.3267 20.5758 51.5256 20.3864C51.7244 20.197 51.8759 19.965 51.9801 19.6903L54.7784 19.875C54.6364 20.5473 54.3452 21.1345 53.9048 21.6364C53.4692 22.1335 52.9058 22.5218 52.2145 22.8011C51.5279 23.0758 50.7348 23.2131 49.8352 23.2131ZM61.7457 23.2131C60.6283 23.2131 59.6671 22.9763 58.8622 22.5028C58.062 22.0246 57.4465 21.3617 57.0156 20.5142C56.5895 19.6667 56.3764 18.6913 56.3764 17.5881C56.3764 16.4706 56.5919 15.4905 57.0227 14.6477C57.4583 13.8002 58.0762 13.1397 58.8764 12.6662C59.6766 12.188 60.6283 11.9489 61.7315 11.9489C62.6832 11.9489 63.5166 12.1217 64.2315 12.4673C64.9465 12.813 65.5123 13.2983 65.929 13.9233C66.3456 14.5483 66.5753 15.2822 66.6179 16.125H63.7628C63.6823 15.5805 63.4692 15.1425 63.1236 14.8111C62.7827 14.4749 62.3352 14.3068 61.7812 14.3068C61.3125 14.3068 60.9029 14.4347 60.5526 14.6903C60.2069 14.9413 59.937 15.3082 59.7429 15.7912C59.5488 16.2741 59.4517 16.8589 59.4517 17.5455C59.4517 18.2415 59.5464 18.8333 59.7358 19.321C59.9299 19.8087 60.2022 20.1804 60.5526 20.4361C60.9029 20.6918 61.3125 20.8196 61.7812 20.8196C62.1269 20.8196 62.437 20.7486 62.7116 20.6065C62.991 20.4645 63.2206 20.2585 63.4006 19.9886C63.5852 19.714 63.706 19.3849 63.7628 19.0014H66.6179C66.5705 19.8348 66.3433 20.5687 65.9361 21.2031C65.5336 21.8329 64.9773 22.3253 64.267 22.6804C63.5568 23.0355 62.7164 23.2131 61.7457 23.2131ZM71.5806 16.6932V23H68.555V8.45455H71.4954V14.0156H71.6232C71.8694 13.3717 72.2672 12.8674 72.8164 12.5028C73.3656 12.1335 74.0546 11.9489 74.8832 11.9489C75.6407 11.9489 76.3013 12.1146 76.8647 12.446C77.4329 12.7727 77.8732 13.2438 78.1857 13.8594C78.503 14.4702 78.6592 15.2017 78.6545 16.054V23H75.6289V16.5938C75.6336 15.9214 75.4632 15.3982 75.1175 15.0241C74.7766 14.6501 74.2984 14.4631 73.6829 14.4631C73.271 14.4631 72.9064 14.5507 72.5891 14.7259C72.2766 14.901 72.0304 15.1567 71.8505 15.4929C71.6753 15.8243 71.5853 16.2244 71.5806 16.6932ZM85.9503 27.3182C84.9702 27.3182 84.1297 27.1832 83.429 26.9134C82.733 26.6482 82.179 26.286 81.767 25.8267C81.3551 25.3674 81.0876 24.8513 80.9645 24.2784L83.7628 23.902C83.848 24.1198 83.983 24.3234 84.1676 24.5128C84.3523 24.7022 84.5961 24.8537 84.8991 24.9673C85.2069 25.0857 85.581 25.1449 86.0213 25.1449C86.6795 25.1449 87.2216 24.9839 87.6477 24.6619C88.0786 24.3447 88.294 23.812 88.294 23.0639V21.0682H88.1662C88.0336 21.3712 87.8348 21.6577 87.5696 21.9276C87.3045 22.1974 86.9635 22.4176 86.5469 22.5881C86.1302 22.7585 85.633 22.8438 85.0554 22.8438C84.2363 22.8438 83.4905 22.6544 82.8182 22.2756C82.1506 21.892 81.6179 21.3073 81.2202 20.5213C80.8272 19.7306 80.6307 18.7315 80.6307 17.5241C80.6307 16.2884 80.8319 15.2562 81.2344 14.4276C81.6368 13.599 82.1719 12.9787 82.8395 12.5668C83.5118 12.1548 84.2481 11.9489 85.0483 11.9489C85.6591 11.9489 86.1705 12.053 86.5824 12.2614C86.9943 12.465 87.3258 12.7206 87.5767 13.0284C87.8324 13.3314 88.0289 13.6297 88.1662 13.9233H88.2798V12.0909H91.2841V23.1065C91.2841 24.0346 91.0568 24.8111 90.6023 25.4361C90.1477 26.0611 89.518 26.5298 88.7131 26.8423C87.9129 27.1596 86.992 27.3182 85.9503 27.3182ZM86.0142 20.571C86.5019 20.571 86.9138 20.4503 87.25 20.2088C87.5909 19.9626 87.8513 19.6122 88.0312 19.1577C88.2159 18.6984 88.3082 18.1491 88.3082 17.5099C88.3082 16.8707 88.2183 16.3168 88.0384 15.848C87.8584 15.3745 87.598 15.0076 87.2571 14.7472C86.9162 14.4867 86.5019 14.3565 86.0142 14.3565C85.517 14.3565 85.098 14.4915 84.7571 14.7614C84.4162 15.0265 84.1581 15.3958 83.983 15.8693C83.8078 16.3428 83.7202 16.8897 83.7202 17.5099C83.7202 18.1397 83.8078 18.6842 83.983 19.1435C84.1629 19.598 84.4209 19.9508 84.7571 20.2017C85.098 20.4479 85.517 20.571 86.0142 20.571ZM98.6634 23.2131C97.5412 23.2131 96.5753 22.9858 95.7656 22.5312C94.9607 22.072 94.3404 21.4233 93.9048 20.5852C93.4692 19.7424 93.2514 18.7457 93.2514 17.5952C93.2514 16.473 93.4692 15.4882 93.9048 14.6406C94.3404 13.7931 94.9536 13.1326 95.7443 12.6591C96.5398 12.1856 97.4725 11.9489 98.5426 11.9489C99.2623 11.9489 99.9323 12.0649 100.553 12.2969C101.178 12.5241 101.722 12.8674 102.186 13.3267C102.655 13.786 103.019 14.3636 103.28 15.0597C103.54 15.7509 103.67 16.5606 103.67 17.4886V18.3196H94.4588V16.4446H100.822C100.822 16.009 100.728 15.6231 100.538 15.2869C100.349 14.9508 100.086 14.688 99.75 14.4986C99.4186 14.3045 99.0327 14.2074 98.5923 14.2074C98.133 14.2074 97.7259 14.3139 97.3707 14.527C97.0204 14.7353 96.7457 15.017 96.5469 15.3722C96.348 15.7225 96.2462 16.1132 96.2415 16.544V18.3267C96.2415 18.8665 96.3409 19.3329 96.5398 19.7259C96.7434 20.1188 97.0298 20.4219 97.3991 20.6349C97.7685 20.848 98.2064 20.9545 98.7131 20.9545C99.0492 20.9545 99.357 20.9072 99.6364 20.8125C99.9157 20.7178 100.155 20.5758 100.354 20.3864C100.553 20.197 100.704 19.965 100.808 19.6903L103.607 19.875C103.464 20.5473 103.173 21.1345 102.733 21.6364C102.297 22.1335 101.734 22.5218 101.043 22.8011C100.356 23.0758 99.563 23.2131 98.6634 23.2131ZM110.616 23.2131C109.494 23.2131 108.528 22.9858 107.719 22.5312C106.914 22.072 106.294 21.4233 105.858 20.5852C105.422 19.7424 105.205 18.7457 105.205 17.5952C105.205 16.473 105.422 15.4882 105.858 14.6406C106.294 13.7931 106.907 13.1326 107.697 12.6591C108.493 12.1856 109.426 11.9489 110.496 11.9489C111.215 11.9489 111.885 12.0649 112.506 12.2969C113.131 12.5241 113.675 12.8674 114.139 13.3267C114.608 13.786 114.973 14.3636 115.233 15.0597C115.493 15.7509 115.624 16.5606 115.624 17.4886V18.3196H106.412V16.4446H112.776C112.776 16.009 112.681 15.6231 112.491 15.2869C112.302 14.9508 112.039 14.688 111.703 14.4986C111.372 14.3045 110.986 14.2074 110.545 14.2074C110.086 14.2074 109.679 14.3139 109.324 14.527C108.973 14.7353 108.699 15.017 108.5 15.3722C108.301 15.7225 108.199 16.1132 108.195 16.544V18.3267C108.195 18.8665 108.294 19.3329 108.493 19.7259C108.696 20.1188 108.983 20.4219 109.352 20.6349C109.722 20.848 110.16 20.9545 110.666 20.9545C111.002 20.9545 111.31 20.9072 111.589 20.8125C111.869 20.7178 112.108 20.5758 112.307 20.3864C112.506 20.197 112.657 19.965 112.761 19.6903L115.56 19.875C115.418 20.5473 115.126 21.1345 114.686 21.6364C114.25 22.1335 113.687 22.5218 112.996 22.8011C112.309 23.0758 111.516 23.2131 110.616 23.2131ZM120.339 19.8608L120.347 16.2315H120.787L124.281 12.0909H127.754L123.06 17.5739H122.342L120.339 19.8608ZM117.598 23V8.45455H120.624V23H117.598ZM124.416 23L121.206 18.2486L123.223 16.1108L127.96 23H124.416ZM138.315 15.2017L135.545 15.3722C135.498 15.1354 135.396 14.9223 135.24 14.733C135.084 14.5388 134.878 14.3849 134.622 14.2713C134.371 14.1529 134.071 14.0938 133.72 14.0938C133.251 14.0938 132.856 14.1932 132.534 14.392C132.212 14.5862 132.051 14.8466 132.051 15.1733C132.051 15.4337 132.155 15.6539 132.364 15.8338C132.572 16.0137 132.929 16.1581 133.436 16.267L135.411 16.6648C136.471 16.8826 137.262 17.233 137.783 17.7159C138.304 18.1989 138.564 18.8333 138.564 19.6193C138.564 20.3343 138.353 20.9616 137.932 21.5014C137.515 22.0412 136.942 22.4626 136.213 22.7656C135.489 23.0639 134.653 23.2131 133.706 23.2131C132.262 23.2131 131.111 22.9124 130.254 22.3111C129.402 21.705 128.902 20.8812 128.756 19.8395L131.732 19.6832C131.821 20.1236 132.039 20.4598 132.385 20.6918C132.731 20.919 133.173 21.0327 133.713 21.0327C134.243 21.0327 134.67 20.9309 134.991 20.7273C135.318 20.5189 135.484 20.2514 135.489 19.9247C135.484 19.6501 135.368 19.4252 135.141 19.25C134.913 19.0701 134.563 18.9328 134.089 18.8381L132.2 18.4616C131.135 18.2486 130.342 17.8793 129.821 17.3537C129.305 16.8281 129.047 16.1581 129.047 15.3438C129.047 14.643 129.236 14.0393 129.615 13.5327C129.999 13.026 130.536 12.6354 131.227 12.3608C131.923 12.0862 132.738 11.9489 133.67 11.9489C135.048 11.9489 136.133 12.2401 136.923 12.8224C137.719 13.4048 138.183 14.1979 138.315 15.2017Z" fill="black"/>
<defs>
<clipPath id="clip0_1_4">
<rect width="32" height="32" fill="white"/>
</clipPath>
</defs>
</svg>
